<?xml version="1.0" encoding="UTF-8" standalone="no"?>
<!-- Created with Inkscape (http://www.inkscape.org/) -->

<svg
   width="200mm"
   height="200mm"
   viewBox="0 0 200 200"
   version="1.1"
   id="svg1"
   inkscape:version="1.3.2 (091e20ef0f, 2023-11-25)"
   sodipodi:docname="logo.svg"
   xml:space="preserve"
   inkscape:export-filename="logo.png"
   inkscape:export-xdpi="96"
   inkscape:export-ydpi="96"
   xmlns:inkscape="http://www.inkscape.org/namespaces/inkscape"
   xmlns:sodipodi="http://sodipodi.sourceforge.net/DTD/sodipodi-0.dtd"
   xmlns="http://www.w3.org/2000/svg"
   xmlns:svg="http://www.w3.org/2000/svg"><sodipodi:namedview
     id="namedview1"
     pagecolor="#ffffff"
     bordercolor="#000000"
     borderopacity="0.25"
     inkscape:showpageshadow="2"
     inkscape:pageopacity="0.0"
     inkscape:pagecheckerboard="0"
     inkscape:deskcolor="#d1d1d1"
     inkscape:document-units="mm"
     inkscape:zoom="1.0761504"
     inkscape:cx="651.86056"
     inkscape:cy="380.0584"
     inkscape:window-width="2559"
     inkscape:window-height="1412"
     inkscape:window-x="2560"
     inkscape:window-y="0"
     inkscape:window-maximized="0"
     inkscape:current-layer="layer4" /><defs
     id="defs1"><inkscape:path-effect
       effect="spiro"
       id="path-effect2"
       is_visible="true"
       lpeversion="1" /><inkscape:path-effect
       effect="spiro"
       id="path-effect1"
       is_visible="true"
       lpeversion="1" /><inkscape:path-effect
       effect="bspline"
       id="path-effect13875"
       is_visible="true"
       lpeversion="1"
       weight="33.333333"
       steps="2"
       helper_size="0"
       apply_no_weight="true"
       apply_with_weight="true"
       only_selected="false"
       uniform="false" /><inkscape:path-effect
       effect="bspline"
       id="path-effect14060"
       is_visible="true"
       lpeversion="1"
       weight="33.333333"
       steps="2"
       helper_size="0"
       apply_no_weight="true"
       apply_with_weight="true"
       only_selected="false"
       uniform="false" /><inkscape:path-effect
       effect="bspline"
       id="path-effect14400"
       is_visible="true"
       lpeversion="1"
       weight="33.333333"
       steps="2"
       helper_size="0"
       apply_no_weight="true"
       apply_with_weight="true"
       only_selected="false"
       uniform="false" /><inkscape:path-effect
       effect="bspline"
       id="path-effect4369"
       is_visible="true"
       lpeversion="1"
       weight="33.333333"
       steps="2"
       helper_size="0"
       apply_no_weight="true"
       apply_with_weight="true"
       only_selected="false"
       uniform="false" /><inkscape:path-effect
       effect="bspline"
       id="path-effect5276"
       is_visible="true"
       lpeversion="1"
       weight="33.333333"
       steps="2"
       helper_size="0"
       apply_no_weight="true"
       apply_with_weight="true"
       only_selected="false"
       uniform="false" /><inkscape:path-effect
       effect="bspline"
       id="path-effect4993"
       is_visible="true"
       lpeversion="1"
       weight="33.333333"
       steps="2"
       helper_size="0"
       apply_no_weight="true"
       apply_with_weight="true"
       only_selected="false"
       uniform="false" /><inkscape:path-effect
       effect="bspline"
       id="path-effect4252"
       is_visible="true"
       lpeversion="1"
       weight="33.333333"
       steps="2"
       helper_size="0"
       apply_no_weight="true"
       apply_with_weight="true"
       only_selected="false"
       uniform="false" /><inkscape:path-effect
       effect="bspline"
       id="path-effect3133"
       is_visible="true"
       lpeversion="1"
       weight="33.333333"
       steps="2"
       helper_size="0"
       apply_no_weight="true"
       apply_with_weight="true"
       only_selected="false"
       uniform="false" /><inkscape:path-effect
       effect="bspline"
       id="path-effect5906"
       is_visible="true"
       lpeversion="1"
       weight="33.333333"
       steps="2"
       helper_size="0"
       apply_no_weight="true"
       apply_with_weight="true"
       only_selected="false"
       uniform="false" /><inkscape:path-effect
       effect="bspline"
       id="path-effect2323"
       is_visible="true"
       lpeversion="1"
       weight="33.333333"
       steps="2"
       helper_size="0"
       apply_no_weight="true"
       apply_with_weight="true"
       only_selected="false"
       uniform="false" /><inkscape:path-effect
       effect="bspline"
       id="path-effect1162"
       is_visible="true"
       lpeversion="1"
       weight="33.333333"
       steps="2"
       helper_size="0"
       apply_no_weight="true"
       apply_with_weight="true"
       only_selected="false"
       uniform="false" /></defs><g
     inkscape:label="Elephant"
     inkscape:groupmode="layer"
     id="layer1"
     transform="translate(-9.293495,-8.9493287)"
     style="display:inline"><g
       inkscape:groupmode="layer"
       id="layer4"
       inkscape:label="Spatula"
       transform="translate(9.293495,8.9493287)"><path
         style="fill:#aaaaaa;fill-opacity:1;stroke:#000000;stroke-width:1.5;stroke-linecap:butt;stroke-linejoin:round;stroke-dasharray:none;paint-order:normal"
         d="m 125.04363,113.49551 c 0.004,0.63344 0.45839,1.36091 1.05171,1.58278 0.52783,0.19738 1.62996,-0.44869 1.62996,-0.44869 l 17.87557,-12.56877 c 0,0 0.48167,-0.34734 0.74263,-0.29439 0.3534,0.0717 0.77074,0.7591 0.77074,0.7591 l 1.87685,2.67773 12.33056,-8.752028 -7.57251,-10.240109 -12.47747,8.691179 2.46492,3.517647 c 0,0 0.38445,0.46709 0.34437,0.734515 -0.0389,0.25944 -0.52828,0.583351 -0.52828,0.583351 l -17.66024,12.448535 c 0,0 -0.85174,0.78908 -0.84881,1.30915 z"
         id="path20"
         sodipodi:nodetypes="aaccaccccccacca" /><path
         style="fill:none;fill-opacity:1;stroke:#000000;stroke-width:0.4;stroke-linecap:butt;stroke-linejoin:round;stroke-dasharray:none;paint-order:normal"
         d="m 146.04753,96.100887 7.35741,-5.02662"
         id="path21"
         sodipodi:nodetypes="cc" /><path
         style="fill:none;fill-opacity:1;stroke:#000000;stroke-width:0.4;stroke-linecap:butt;stroke-linejoin:round;stroke-dasharray:none;paint-order:normal"
         d="m 147.6825,98.338221 7.3574,-5.163076"
         id="path22"
         sodipodi:nodetypes="cc" /><path
         style="fill:none;fill-opacity:1;stroke:#000000;stroke-width:0.4;stroke-linecap:butt;stroke-linejoin:round;stroke-dasharray:none;paint-order:normal"
         d="m 149.31747,100.61858 7.31437,-5.292154"
         id="path23"
         sodipodi:nodetypes="cc" /></g><rect
       style="display:inline;fill:#f4edeb;fill-opacity:1;stroke:none;stroke-width:2.11667;stroke-linecap:round;stroke-linejoin:round;stroke-miterlimit:4;stroke-dasharray:none"
       id="rect13057"
       width="25.329052"
       height="12.008607"
       x="107.57396"
       y="96.868088"
       inkscape:export-filename="C:\Users\scorp\ElephantLogos\ElephantLogos\docs\elephant200.png"
       inkscape:export-xdpi="52.631577"
       inkscape:export-ydpi="52.631577" /><path
       style="display:inline;fill:#f4edeb;fill-opacity:1;stroke:none;stroke-width:2.11667;stroke-linecap:butt;stroke-linejoin:miter;stroke-miterlimit:4;stroke-dasharray:none;stroke-opacity:1"
       d="m 67.004899,75.161548 c -0.273307,-0.78683 -0.546723,-1.573976 -1.064332,-1.777287 -0.517608,-0.203312 -1.279374,0.177571 -1.695408,0.87937 -0.416034,0.7018 -0.486197,1.724168 -0.125177,2.405709 0.361019,0.681542 1.152853,1.022331 1.70535,0.714268 0.552498,-0.308062 0.866003,-1.26497 1.179567,-2.22206"
       id="path13873"
       inkscape:path-effect="#path-effect13875"
       inkscape:original-d="m 67.004899,75.161548 c -0.273151,-0.786884 -0.546568,-1.57403 -0.820251,-2.361443 -0.761531,0.381161 -1.523296,0.762045 -2.285341,1.142669 -0.0699,1.022676 -0.140062,2.045044 -0.210492,3.067167 0.792131,0.341069 1.583965,0.681857 2.375551,1.022389 0.313783,-0.95668 0.627287,-1.913588 0.940533,-2.870782"
       inkscape:export-filename="C:\Users\scorp\ElephantLogos\ElephantLogos\docs\elephant200.png"
       inkscape:export-xdpi="52.631577"
       inkscape:export-ydpi="52.631577"
       transform="translate(54.77058,61.365681)" /><path
       style="display:inline;fill:#f4edeb;fill-opacity:1;stroke:none;stroke-width:2.11667;stroke-linecap:butt;stroke-linejoin:miter;stroke-miterlimit:4;stroke-dasharray:none;stroke-opacity:1"
       d="m 61.930315,81.576882 c 1.097361,-0.570089 2.194821,-1.14023 2.813604,-2.001492 0.618782,-0.861262 0.759107,-2.013932 0.318219,-3.056365 -0.440888,-1.042434 -1.463257,-1.974592 -2.420603,-2.170193 -0.957345,-0.1956 -1.849413,0.345655 -2.230327,1.383259 -0.380914,1.037604 -0.250613,2.571156 0.0879,3.628003 0.338513,1.056847 0.884726,1.636676 1.431206,2.216788 z"
       id="path14058"
       inkscape:path-effect="#path-effect14060"
       inkscape:original-d="m 61.930315,81.576882 c 0,0 2.194986,-1.139913 3.292083,-1.710267 0.140597,-1.152451 0.280922,-2.305121 0.420984,-3.45808 -1.022143,-0.931932 -2.044512,-1.86409 -3.067166,-2.796532 -0.891839,0.541538 -1.783906,1.082794 -2.676253,1.623793 0.130572,1.533879 0.260872,3.067431 0.390912,4.600749 0.546756,0.580387 1.63944,1.740337 1.63944,1.740337 z"
       sodipodi:nodetypes="ccccccc"
       inkscape:export-filename="C:\Users\scorp\ElephantLogos\ElephantLogos\docs\elephant200.png"
       inkscape:export-xdpi="52.631577"
       inkscape:export-ydpi="52.631577"
       transform="translate(54.77058,61.365681)" /><path
       style="display:inline;fill:#f4edeb;fill-opacity:1;stroke:none;stroke-width:2.11667;stroke-linecap:butt;stroke-linejoin:miter;stroke-miterlimit:4;stroke-dasharray:none;stroke-opacity:1"
       d="m 30.36605,76.926793 c -0.54965,1.060129 -1.099351,2.120357 -2.246189,3.352012 -1.146838,1.231655 -2.890879,2.634906 -4.13178,3.482671 -1.2409,0.847766 -1.97884,1.14009 -2.716657,1.432366 -0.314642,-1.444969 -0.629218,-2.889631 -0.485888,-4.694731 0.143329,-1.8051 0.744722,-3.970116 2.017873,-5.057747 1.27315,-1.087631 3.217655,-1.097654 4.590048,-0.670335 1.372392,0.42732 2.172357,1.291396 2.972593,2.155764 z"
       id="path14398"
       inkscape:path-effect="#path-effect14400"
       inkscape:original-d="m 30.36605,76.926793 c 0,0 -1.099034,2.120521 -1.648949,3.180386 -1.743845,1.40357 -3.487886,2.806822 -5.232226,4.209836 -0.737567,0.292547 -2.213451,0.876827 -2.213451,0.876827 0,0 -0.62902,-2.889674 -0.943927,-4.334907 0.601682,-2.164837 1.203075,-4.329853 1.804216,-6.495177 1.944847,-0.0098 3.889352,-0.01979 5.83363,-0.03007 0.800518,0.86465 2.400707,2.593105 2.400707,2.593105 z"
       sodipodi:nodetypes="cccccccc"
       inkscape:export-filename="C:\Users\scorp\ElephantLogos\ElephantLogos\docs\elephant200.png"
       inkscape:export-xdpi="52.631577"
       inkscape:export-ydpi="52.631577"
       transform="translate(54.77058,61.365681)" /><path
       style="display:inline;fill:#f4edeb;fill-opacity:1;stroke:#3d3741;stroke-width:2.11667;stroke-linecap:round;stroke-linejoin:round;stroke-miterlimit:4;stroke-dasharray:none;stroke-opacity:1"
       d="m 61.930315,81.576882 c 0.626569,0.141644 1.252818,0.283216 1.901725,0.358983 0.648907,0.07577 1.320447,0.08579 1.926898,0.150976 0.606451,0.06519 1.147694,0.185462 1.453244,-0.0099 0.30555,-0.195383 0.375713,-0.706568 0.275532,-1.483349 -0.100181,-0.776781 -0.370801,-1.819174 -0.479713,-2.768794 -0.108911,-0.949621 -0.056,-1.806301 -0.0031,-2.663248"
       id="path4367"
       inkscape:path-effect="#path-effect4369"
       inkscape:original-d="m 61.930315,81.576882 c 0.626525,0.141839 1.252774,0.283411 1.878782,0.424723 0.671846,0.01029 1.343386,0.02031 2.014706,0.03007 0.541542,0.120548 1.082785,0.240824 1.623795,0.360842 0.07043,-0.510939 0.140592,-1.022124 0.210491,-1.533583 -0.270372,-1.042192 -0.540993,-2.084585 -0.811895,-3.127308 0.05318,-0.856452 0.106085,-1.713133 0.158731,-2.570097"
       sodipodi:nodetypes="ccccccc"
       inkscape:export-filename="C:\Users\scorp\ElephantLogos\ElephantLogos\docs\elephant200.png"
       inkscape:export-xdpi="52.631577"
       inkscape:export-ydpi="52.631577"
       transform="translate(54.77058,61.365681)" /><path
       style="display:inline;fill:#f4edeb;fill-opacity:1;stroke:#3d3741;stroke-width:2.11667;stroke-linecap:round;stroke-linejoin:round;stroke-miterlimit:4;stroke-dasharray:none;stroke-opacity:1"
       d="m 21.271424,85.193844 c 1.349516,0.02848 2.698734,0.05695 3.929706,0.326862 1.230971,0.269909 2.343525,0.781083 3.070061,0.79607 0.726535,0.01499 1.067325,-0.466126 1.292858,-1.207779 0.225534,-0.741653 0.335789,-1.743974 0.350846,-2.826491 0.01506,-1.082517 -0.06513,-2.24521 -0.0058,-3.151216 0.05928,-0.906006 0.25809,-1.555161 0.456956,-2.204497"
       id="path5274"
       inkscape:path-effect="#path-effect5276"
       inkscape:original-d="m 21.271424,85.193844 c 1.34951,0.02874 2.698729,0.05721 4.047736,0.08542 1.112887,0.511469 2.225441,1.022643 3.337799,1.533583 0.341068,-0.48087 0.681858,-0.961984 1.022389,-1.443372 0.110524,-1.002099 0.220782,-2.00442 0.330774,-3.007027 -0.07993,-1.162476 -0.16011,-2.325169 -0.240562,-3.48815 0.199083,-0.648917 0.397894,-1.298072 0.596443,-1.947505"
       sodipodi:nodetypes="ccccccc"
       inkscape:export-filename="C:\Users\scorp\ElephantLogos\ElephantLogos\docs\elephant200.png"
       inkscape:export-xdpi="52.631577"
       inkscape:export-ydpi="52.631577"
       transform="translate(54.77058,61.365681)" /><path
       style="display:inline;fill:#f4edeb;fill-opacity:1;stroke:#3d3741;stroke-width:2.11667;stroke-linecap:round;stroke-linejoin:round;stroke-miterlimit:4;stroke-dasharray:none;stroke-opacity:1"
       d="m 14.637851,74.15021 c 0.02419,0.647592 0.04836,1.294895 -0.187653,2.277659 -0.236015,0.982763 -0.732129,2.30101 -1.256623,3.768184 -0.524494,1.467173 -1.077319,3.08312 -1.509666,4.415613 -0.432348,1.332493 -0.744197,2.381439 -0.793672,3.047742 -0.04947,0.666304 0.16315,0.949802 0.879031,1.077229 0.715881,0.127426 1.934929,0.09908 3.01224,0.0211 1.077312,-0.07798 2.012861,-0.205551 2.891782,-0.106242 0.878922,0.09931 1.70107,0.425334 2.253752,0.453615 0.552682,0.02828 0.836181,-0.241043 1.006276,-0.999302 0.170095,-0.75826 0.226795,-2.005659 0.368534,-3.175153 0.141739,-1.169495 0.368539,-2.260969 0.853901,-3.678594 0.485362,-1.417625 1.229265,-3.16124 1.973237,-4.905015"
       id="path4991"
       inkscape:path-effect="#path-effect4993"
       inkscape:original-d="m 14.637851,74.15021 c 0.02444,0.647583 0.04861,1.294886 0.07253,1.941951 -0.495879,1.318591 -0.991993,2.636838 -1.488401,3.954899 -0.552582,1.616275 -1.105406,3.232222 -1.658506,4.847937 -0.311597,1.049256 -0.623446,2.098202 -0.935567,3.146907 0.212898,0.283776 0.425523,0.567274 0.637887,0.850516 1.219361,-0.02809 2.438409,-0.05643 3.657216,-0.08505 0.93585,-0.127315 1.871399,-0.254889 2.806701,-0.38273 0.822446,0.326303 1.644595,0.652325 2.466495,0.978093 0.283776,-0.269071 0.567275,-0.538395 0.850516,-0.80799 0.05697,-1.247182 0.113666,-2.494581 0.170103,-3.742269 0.227073,-1.09125 0.453872,-2.182725 0.680412,-3.274483 0.744197,-1.743419 1.4881,-3.487034 2.231753,-5.230945"
       sodipodi:nodetypes="ccccccccccccc"
       inkscape:export-filename="C:\Users\scorp\ElephantLogos\ElephantLogos\docs\elephant200.png"
       inkscape:export-xdpi="52.631577"
       inkscape:export-ydpi="52.631577"
       transform="translate(54.77058,61.365681)" /><path
       style="display:inline;fill:#f4edeb;fill-opacity:1;stroke:#3d3741;stroke-width:2.11667;stroke-linecap:round;stroke-linejoin:round;stroke-miterlimit:4;stroke-dasharray:none;stroke-opacity:1"
       d="m 61.741797,76.188362 c 0.09775,0.775323 0.195472,1.550355 0.229274,2.53927 0.0338,0.988915 0.0037,2.1917 -0.07646,3.484726 -0.0802,1.293026 -0.210499,2.676231 -0.731556,3.232455 -0.521058,0.556225 -1.433172,0.285597 -2.245086,0.100137 -0.811913,-0.18546 -1.523561,-0.285692 -2.395666,-0.200534 -0.872105,0.08516 -1.904496,0.355784 -2.73145,0.601357 -0.826955,0.245573 -1.448394,0.466084 -1.894368,0.471235 -0.445974,0.0052 -0.716602,-0.205338 -0.816991,-0.786699 -0.100389,-0.581361 -0.03023,-1.533565 0.155194,-2.576044 0.185422,-1.042478 0.486118,-2.175101 0.635294,-3.170643 0.149176,-0.995541 0.146776,-1.854027 0.144375,-2.712796"
       id="path4250"
       inkscape:path-effect="#path-effect4252"
       inkscape:original-d="m 61.741797,76.188362 c 0.09798,0.775295 0.195701,1.550326 0.293153,2.325092 -0.02981,1.2031 -0.05988,2.405885 -0.09021,3.608432 -0.130043,1.383525 -0.260345,2.76673 -0.390914,4.149696 -0.911884,-0.270372 -1.823998,-0.541001 -2.736392,-0.811898 -0.711414,-0.09997 -1.423062,-0.200202 -2.134989,-0.300701 -1.032169,0.270901 -2.06456,0.541528 -3.097239,0.811898 -0.621199,0.220784 -1.242639,0.441293 -1.864355,0.661545 -0.270372,-0.210232 -0.541001,-0.420719 -0.811898,-0.631476 0.07043,-0.951981 0.140592,-1.904185 0.210492,-2.856674 0.300975,-1.132406 0.601671,-2.265029 0.902108,-3.397941 -0.0021,-0.858255 -0.0046,-1.716741 -0.0072,-2.575509"
       inkscape:export-filename="C:\Users\scorp\ElephantLogos\ElephantLogos\docs\elephant200.png"
       inkscape:export-xdpi="52.631577"
       inkscape:export-ydpi="52.631577"
       transform="translate(54.77058,61.365681)" /><path
       style="display:inline;fill:#f4edeb;fill-opacity:1;stroke:#3d3741;stroke-width:2.11667;stroke-linecap:round;stroke-linejoin:round;stroke-miterlimit:4;stroke-dasharray:none;stroke-opacity:1"
       d="m 74.530011,49.12676 c 0.315485,2.52888 0.630934,5.057463 0.728492,7.464426 0.09756,2.406962 -0.02272,4.692258 -0.2633,6.716983 -0.24058,2.024725 -0.601409,3.788775 -0.942219,5.051716 -0.34081,1.26294 -0.661546,2.024687 -1.122615,2.756359 -0.46107,0.731672 -1.062449,1.433281 -1.934451,2.104829 -0.872002,0.671547 -2.014626,1.313021 -3.57825,1.814208 -1.563624,0.501187 -3.548182,0.862016 -6.034029,1.202825 -2.485846,0.340809 -5.472707,0.661545 -8.770467,0.892095 -3.29776,0.230551 -6.90605,0.370873 -10.885413,0.320768 C 37.748395,77.400864 33.398404,77.160313 29.739788,76.87966 26.081171,76.599007 23.114357,76.27827 20.628511,75.837259 18.142665,75.396248 16.13806,74.834958 14.482667,74.080504 12.827273,73.326051 11.521275,72.378375 10.661065,71.556649 9.8008543,70.734923 9.3865886,70.039103 9.1674711,68.498196 8.9483536,66.95729 8.9245779,64.571502 9.1833061,61.945128 c 0.2587283,-2.626374 0.7999714,-5.492959 1.7421849,-8.961156 0.942214,-3.468196 2.285299,-7.537544 4.119655,-10.614881 1.834356,-3.077338 4.159696,-5.162125 6.55541,-6.645641 2.395715,-1.483517 4.861377,-2.365542 7.858481,-3.00704 2.997103,-0.641498 6.525208,-1.042419 9.73898,-1.132175 3.213773,-0.08976 6.112841,0.131623 9.011679,0.352983"
       id="path3131"
       inkscape:path-effect="#path-effect3133"
       inkscape:original-d="m 74.530011,49.12676 c 0.315714,2.528851 0.631164,5.057434 0.946346,7.585755 -0.120018,2.285648 -0.240297,4.570944 -0.360841,6.856018 -0.360587,1.764424 -0.721416,3.528474 -1.082531,5.292366 -0.320492,0.76206 -0.641227,1.523808 -0.962249,2.28534 -0.601153,0.70192 -1.202532,1.403529 -1.804214,2.104918 -1.142429,0.641778 -2.285053,1.283252 -3.428011,1.924499 -1.984412,0.361115 -3.96897,0.721943 -5.953912,1.082529 -2.986775,0.32102 -5.973636,0.641756 -8.960938,0.962246 -3.608238,0.140596 -7.216528,0.280918 -10.825295,0.420984 C 37.748381,77.401114 33.39839,77.160562 29.047874,76.919731 26.081146,76.59924 23.114332,76.278503 20.147075,75.957483 18.142616,75.396424 16.138011,74.835134 14.133023,74.273547 12.827239,73.326098 11.521241,72.378422 10.214953,71.430463 9.8009341,70.734876 9.3866681,70.039056 8.9721281,69.342956 c -0.02351,-2.385669 -0.04729,-4.771457 -0.07133,-7.157654 0.54154,-2.866491 1.082783,-5.733076 1.6237939,-8.600096 1.34343,-4.069325 2.686516,-8.138673 4.029416,-12.208527 2.325744,-2.084647 4.651084,-4.169434 6.9763,-6.254613 2.466077,-0.881814 4.931739,-1.76384 7.397285,-2.646183 3.52858,-0.400681 7.056685,-0.801602 10.584734,-1.202811 2.899444,0.221651 5.798512,0.443029 8.697369,0.664146"
       sodipodi:nodetypes="cccccccccccccccccccccc"
       inkscape:export-filename="C:\Users\scorp\ElephantLogos\ElephantLogos\docs\elephant200.png"
       inkscape:export-xdpi="52.631577"
       inkscape:export-ydpi="52.631577"
       transform="translate(54.77058,61.365681)" /><path
       style="display:inline;fill:#3d3741;fill-opacity:1;stroke:#3d3741;stroke-width:2.11667;stroke-linecap:round;stroke-linejoin:round;stroke-miterlimit:4;stroke-dasharray:none;stroke-opacity:1"
       d="m 56.93847,42.585531 c -1e-6,-0.06011 -1e-6,-0.180602 0.09923,-0.333124 0.09923,-0.152521 0.3047,-0.343313 0.502239,-0.449162 0.19754,-0.105848 0.41936,-0.142818 0.632009,-0.164067 0.21265,-0.02125 0.425278,-0.02834 0.631592,0.01301 0.206314,0.04134 0.417464,0.135999 0.532392,0.289772 0.114928,0.153773 0.147027,0.434648 0.111364,0.631608 -0.03566,0.196959 -0.148687,0.362729 -0.288865,0.499852 -0.140179,0.137123 -0.32042,0.259687 -0.508189,0.35182 -0.18777,0.09213 -0.386225,0.155922 -0.595248,0.177225 -0.209023,0.0213 -0.44747,-0.0018 -0.625957,-0.114134 -0.178486,-0.11236 -0.318366,-0.296747 -0.404466,-0.468742 -0.0861,-0.171994 -0.0861,-0.267365 -0.0861,-0.320655 10e-7,-0.05329 -3e-6,-0.05329 -3e-6,-0.113403 z"
       id="path5904"
       inkscape:path-effect="#path-effect5906"
       inkscape:original-d="m 56.93847,42.645643 c 2.64e-4,-0.120224 2.63e-4,-0.240714 -2e-6,-0.361469 0.198719,-0.184014 0.404187,-0.374806 0.595361,-0.552835 0.193463,-0.09507 0.425521,-0.07061 0.637886,-0.106315 0.212894,-0.0068 0.425521,-0.01391 0.637887,-0.02126 0.221021,0.04344 0.411348,0.184545 0.616625,0.27642 0.147417,0.201517 0.05696,0.496398 0.08505,0.7442 -0.04528,0.183209 -0.212363,0.31212 -0.318942,0.467783 -0.15161,0.151422 -0.354116,0.241244 -0.531571,0.361469 -0.19819,0.06405 -0.396644,0.127843 -0.595363,0.191367 -0.219452,-0.021 -0.466404,0.04381 -0.659149,-0.06379 -0.15566,-0.205273 -0.295539,-0.38966 -0.467782,-0.616624 2.66e-4,-0.116994 2.67e-4,-0.212365 4e-6,-0.318944 z"
       sodipodi:nodetypes="saaaaaaaaaaass"
       inkscape:export-filename="C:\Users\scorp\ElephantLogos\ElephantLogos\docs\elephant200.png"
       inkscape:export-xdpi="52.631577"
       inkscape:export-ydpi="52.631577"
       transform="translate(54.77058,61.365681)" /><path
       style="display:inline;fill:#f4edeb;fill-opacity:1;stroke:#3d3741;stroke-width:2.11667;stroke-linecap:round;stroke-linejoin:round;stroke-miterlimit:4;stroke-dasharray:none;stroke-opacity:1"
       d="m 78.132428,35.502408 c 1.139682,0.735431 2.279033,1.470649 3.379955,2.429707 1.100921,0.959058 2.163362,2.141777 3.175722,3.464908 1.012361,1.323131 1.974572,2.786493 2.816537,4.2299 0.841964,1.443407 1.563635,2.866704 2.225154,4.570704 0.661519,1.704 1.262913,3.688599 1.562118,5.819399 0.299205,2.130801 0.296305,4.407459 0.293405,6.684428 -0.93931,0.248933 -1.878439,0.497819 -2.829189,0.63233 -0.95075,0.134512 -1.913238,0.154563 -2.875487,0.17461 -0.601405,-1.804216 -1.202704,-3.608114 -2.275173,-5.622851 -1.07247,-2.014737 -2.616015,-4.239847 -4.039318,-5.75347 -1.423304,-1.513622 -2.726296,-2.315464 -4.229853,-2.786658 -1.503557,-0.471195 -3.207503,-0.61152 -4.91177,-0.751871"
       id="path2321"
       inkscape:path-effect="#path-effect2323"
       inkscape:original-d="m 78.132428,35.502408 c 1.139639,0.735498 2.27899,1.470716 3.418123,2.205699 1.062768,1.183053 2.125209,2.365771 3.187446,3.548293 0.962532,1.463712 1.924744,2.927074 2.886748,4.390259 0.721965,1.423618 1.443636,2.846915 2.165057,4.269975 0.601684,1.984941 1.203076,3.969541 1.804217,5.953913 -0.0026,2.27728 -0.0087,6.830907 -0.0087,6.830907 0,0 -1.878356,0.498131 -2.817929,0.7468 -0.962004,0.02032 -2.886747,0.06014 -2.886747,0.06014 0,0 -1.202544,-3.608167 -1.804215,-5.412647 -1.543373,-2.224979 -3.086918,-4.450089 -4.63082,-6.675597 -1.302805,-0.801626 -2.605797,-1.603467 -3.909133,-2.405622 -1.703753,-0.140066 -3.407699,-0.280391 -5.111946,-0.420984"
       sodipodi:nodetypes="ccccccccccccc"
       inkscape:export-filename="C:\Users\scorp\ElephantLogos\ElephantLogos\docs\elephant200.png"
       inkscape:export-xdpi="52.631577"
       inkscape:export-ydpi="52.631577"
       transform="translate(54.77058,61.365681)" /><path
       style="display:inline;fill:#f4edeb;fill-opacity:1;stroke:#3d3741;stroke-width:2.11667;stroke-linecap:round;stroke-linejoin:round;stroke-miterlimit:4;stroke-dasharray:none;stroke-opacity:1;paint-order:normal"
       d="m 47.96553,35.5651 c 0.04294,-4.309015 0.08588,-8.618208 0.54778,-12.198795 0.461896,-3.580588 1.342741,-6.432132 2.935305,-8.818582 1.592564,-2.38645 3.896577,-4.307329 6.404147,-5.479458 2.507569,-1.1721288 5.218202,-1.5953547 8.020938,-1.9507454 2.802736,-0.3553906 5.697222,-0.6429141 8.265469,-0.384836 2.568247,0.258078 4.809863,1.0615887 6.79155,2.4895469 1.981686,1.4279585 3.703284,3.4800215 4.4907,6.0155845 0.787416,2.535564 0.640806,5.554353 0.306028,7.962143 -0.334777,2.407789 -0.857643,4.204361 -1.661197,5.88817 -0.803553,1.68381 -1.887707,3.254767 -3.443505,4.542255 -1.555797,1.287488 -3.583236,2.291479 -5.560857,2.935251 -1.97762,0.643771 -3.905415,0.92727 -5.833471,1.210808"
       id="path1160"
       inkscape:path-effect="#path-effect1162"
       inkscape:original-d="m 47.96553,35.5651 c 0.04321,-4.309012 0.08615,-8.618205 0.12883,-12.927834 0.881162,-2.851451 1.762007,-5.702995 2.642641,-8.554977 2.304417,-1.92073 4.60843,-3.841609 6.912317,-5.7628675 2.71106,-0.4229867 5.421693,-0.8462126 8.132224,-1.2697285 2.894923,-0.2872761 5.789409,-0.5747994 8.683804,-0.8626047 2.242016,0.8038237 4.483632,1.6073343 6.725118,2.4106287 1.721966,2.052451 3.443564,4.104514 5.165002,6.156436 -0.146355,3.019239 -0.292965,6.038028 -0.439848,9.056739 -0.522634,1.796947 -1.0455,3.593518 -1.568662,5.389936 -1.083956,1.571319 -2.16811,3.142276 -3.252595,4.713065 -2.027256,1.004296 -4.054695,2.008287 -6.082438,3.012033 -1.927611,0.283776 -3.855407,0.567274 -5.783506,0.850516"
       sodipodi:nodetypes="ccccccccccccc"
       inkscape:export-filename="C:\Users\scorp\ElephantLogos\ElephantLogos\docs\elephant200.png"
       inkscape:export-xdpi="52.631577"
       inkscape:export-ydpi="52.631577"
       transform="translate(54.77058,61.365681)" /></g><g
     inkscape:groupmode="layer"
     id="layer2"
     inkscape:label="Hat"><path
       style="display:inline;fill:#f8f8f8;fill-opacity:1;stroke:#000000;stroke-width:1.5;stroke-linecap:butt;stroke-linejoin:round;stroke-dasharray:none;paint-order:normal"
       d="m 122.73389,55.398089 c 0,0 1.49215,-2.769817 1.79503,-4.210295 0.31804,-1.512618 0.0177,-2.997342 -0.0111,-4.490761 -0.0201,-1.041294 0.0124,-2.094038 -0.11275,-3.115891 -0.1284,-1.051308 -0.53929,-2.030517 -0.6546,-3.084745 -0.14852,-1.352602 0.27,-2.819748 -0.045,-4.128536 -0.26909,-1.118292 -0.84488,-2.146687 -1.54634,-3.057533 -0.52767,-0.685074 -1.14964,-1.347162 -1.9641,-1.760532 -0.93967,-0.476898 -2.05932,-0.832195 -3.21721,-0.751781 -1.75258,0.121704 -3.43846,1.116469 -5.10245,1.830441 -1.97722,0.848349 -3.74781,2.17581 -5.76855,2.901528 -1.52772,0.548654 -3.14855,0.641886 -4.70735,1.063177 -1.503726,0.406399 -3.036426,0.771532 -4.470306,1.409827 -1.936918,0.862222 -3.685684,2.094099 -5.47503,3.220898 -1.860817,1.171799 -3.603508,2.504081 -5.463801,3.676612 -1.417054,0.893161 -2.902481,1.684091 -4.334879,2.554909 -1.348028,0.819521 -2.974345,1.379509 -4.007528,2.512079 -1.19742,1.312633 -1.775698,2.992183 -2.178862,4.568606 -0.442531,1.730344 -0.200063,3.457181 -0.214692,5.176253 -0.01039,1.220743 -0.04916,2.450591 0.09016,3.645588 0.122715,1.052615 0.461213,2.04951 0.654601,3.084742 0.254744,1.36367 0.0375,2.896844 0.665858,4.116876 0.53653,1.041748 1.516882,1.8486 2.539817,2.520029 0.93957,0.616713 2.068999,1.020706 3.21716,1.328232 0.971501,0.26021 1.995836,0.491491 3.059158,0.42462 1.288752,-0.08105 2.607797,-0.479257 3.838134,-0.989193 0.969201,-0.401686 2.70932,-1.596832 2.70932,-1.596832 l 0.989822,-8.304403 5.841364,-6.206442 8.153554,-4.806952 9.79645,-0.243389 z"
       id="path4"
       sodipodi:nodetypes="caaaaaaaaaaaaaaaaaaaaaaaaac"
       inkscape:transform-center-x="0.447808"
       inkscape:transform-center-y="-1.3968835" /><path
       style="display:inline;fill:#f8f8f8;fill-opacity:1;stroke:#000000;stroke-width:1.5;stroke-linecap:butt;stroke-linejoin:round;stroke-dasharray:none;paint-order:normal"
       d="m 127.54094,58.428219 c -1.34149,-2.687117 -6.1144,-6.617833 -6.1144,-6.617833 0,0 -0.4983,-0.339653 -0.78903,-0.45057 -2.50493,-0.955837 -5.44375,-1.738862 -8.07109,-1.791477 -3.16195,-0.06332 -6.65051,0.542294 -9.85008,1.619164 -3.100056,1.04338 -6.264296,2.468918 -8.716724,4.577056 -1.849091,1.589509 -3.252188,3.655263 -4.11903,5.739392 -0.593056,1.425871 -0.658161,2.941283 -0.638741,4.384468 0.01809,1.343976 0.330242,2.632433 0.702259,3.899805 0.673604,2.294808 2.746794,6.628279 2.746794,6.628279 0,0 1.195638,-2.940099 1.964138,-4.324176 0.892645,-1.607662 1.847425,-3.207074 3.057097,-4.592024 1.222551,-1.399695 2.616817,-2.685657 4.183207,-3.685754 1.75627,-1.121328 3.73202,-1.899627 5.72256,-2.515771 2.21566,-0.685828 4.53653,-0.999415 6.83789,-1.287955 1.23812,-0.155232 2.48813,-0.241674 3.73593,-0.236726 1.05006,0.0042 2.10115,0.08686 3.1422,0.224136 0.94149,0.124147 1.85888,0.394055 2.7971,0.540844 1.28668,0.201308 2.98671,1.413806 3.87919,0.465356 0.59817,-0.635683 -0.0794,-1.795256 -0.46927,-2.576214 z"
       id="path3"
       sodipodi:nodetypes="acasaaaaacaaaaaaaaaa"
       inkscape:transform-center-x="-7.106415"
       inkscape:transform-center-y="9.2038529" /><path
       style="fill:none;stroke:#000000;stroke-width:0.4;stroke-dasharray:none"
       d="m 119.81279,49.083938 c 0,0 2.36694,-2.269309 3.04153,-3.722841 0.61879,-1.333291 0.80692,-4.335197 0.80692,-4.335197"
       id="path14"
       sodipodi:nodetypes="cac" /><path
       style="fill:none;fill-opacity:1;stroke:#000000;stroke-width:0.4;stroke-linecap:butt;stroke-linejoin:round;stroke-dasharray:none;paint-order:normal"
       d="m 115.87098,47.721805 c 0,0 -2.01999,-4.186358 -2.37306,-6.449832 -0.36295,-2.326817 0.30424,-7.058308 0.30424,-7.058308"
       id="path15"
       sodipodi:nodetypes="cac" /><path
       style="fill:none;fill-opacity:1;stroke:#000000;stroke-width:0.4;stroke-linecap:butt;stroke-linejoin:round;stroke-dasharray:none;paint-order:normal"
       d="m 103.27555,38.533837 c 0,0 2.09617,1.854235 2.61643,3.103221 0.79082,1.898529 0.54764,6.145596 0.54764,6.145596"
       id="path16"
       sodipodi:nodetypes="cac" /><path
       style="fill:none;fill-opacity:1;stroke:#000000;stroke-width:0.4;stroke-linecap:butt;stroke-linejoin:round;stroke-dasharray:none;paint-order:normal"
       d="m 91.957921,43.219092 c 0,0 2.454214,2.178053 3.224913,3.590001 0.735527,1.347513 1.216949,4.441865 1.216949,4.441865"
       id="path17"
       sodipodi:nodetypes="cac" /><path
       style="fill:none;fill-opacity:1;stroke:#000000;stroke-width:0.4;stroke-linecap:butt;stroke-linejoin:round;stroke-dasharray:none;paint-order:normal"
       d="m 88.976389,57.761637 c -0.36508,0 -3.70742,1.087814 -5.597969,0.97356 -1.332212,-0.08051 -2.962603,-0.144665 -3.833389,-1.156102 -1.016208,-1.180348 -0.669317,-4.624406 -0.669317,-4.624406"
       id="path18"
       sodipodi:nodetypes="caac" /><path
       style="fill:none;fill-opacity:1;stroke:#000000;stroke-width:0.4;stroke-linecap:butt;stroke-linejoin:round;stroke-dasharray:none;paint-order:normal"
       d="m 87.21182,65.550113 c 0,0 -1.576091,1.429597 -2.555598,1.76458 -1.40306,0.479835 -3.048772,0.751447 -4.441861,0.24339 -0.862747,-0.314642 -2.007976,-1.886273 -2.007976,-1.886273"
       id="path19"
       sodipodi:nodetypes="caac" /></g></svg>
